<mxfile host="app.diagrams.net" modified="2024-07-21T17:55:29.100Z" agent="Mozilla/5.0 (Windows NT 10.0; Win64; x64) AppleWebKit/537.36 (KHTML, like Gecko) Chrome/126.0.0.0 Safari/537.36 Edg/126.0.0.0" etag="6ghm6GASVv12iI4FnrkY" version="24.7.1" type="device">
  <diagram id="C5RBs43oDa-KdzZeNtuy" name="Page-1">
    <mxGraphModel dx="1195" dy="657" grid="1" gridSize="10" guides="1" tooltips="1" connect="1" arrows="1" fold="1" page="1" pageScale="1" pageWidth="827" pageHeight="1169" math="0" shadow="0">
      <root>
        <mxCell id="WIyWlLk6GJQsqaUBKTNV-0" />
        <mxCell id="WIyWlLk6GJQsqaUBKTNV-1" parent="WIyWlLk6GJQsqaUBKTNV-0" />
        <mxCell id="dHU1uX5CywDw_5BKGUCP-8" style="edgeStyle=orthogonalEdgeStyle;rounded=0;orthogonalLoop=1;jettySize=auto;html=1;fillColor=#dae8fc;strokeColor=#6c8ebf;" edge="1" parent="WIyWlLk6GJQsqaUBKTNV-1" source="dHU1uX5CywDw_5BKGUCP-2" target="dHU1uX5CywDw_5BKGUCP-3">
          <mxGeometry relative="1" as="geometry" />
        </mxCell>
        <mxCell id="dHU1uX5CywDw_5BKGUCP-2" value="Idle" style="rounded=1;whiteSpace=wrap;html=1;fillColor=#f5f5f5;fontColor=#333333;strokeColor=#666666;" vertex="1" parent="WIyWlLk6GJQsqaUBKTNV-1">
          <mxGeometry x="189" y="410" width="120" height="60" as="geometry" />
        </mxCell>
        <mxCell id="dHU1uX5CywDw_5BKGUCP-9" style="edgeStyle=orthogonalEdgeStyle;rounded=0;orthogonalLoop=1;jettySize=auto;html=1;exitX=0.25;exitY=1;exitDx=0;exitDy=0;entryX=1;entryY=0.25;entryDx=0;entryDy=0;fillColor=#f5f5f5;strokeColor=#666666;" edge="1" parent="WIyWlLk6GJQsqaUBKTNV-1" source="dHU1uX5CywDw_5BKGUCP-3" target="dHU1uX5CywDw_5BKGUCP-4">
          <mxGeometry relative="1" as="geometry" />
        </mxCell>
        <mxCell id="dHU1uX5CywDw_5BKGUCP-16" style="edgeStyle=orthogonalEdgeStyle;rounded=0;orthogonalLoop=1;jettySize=auto;html=1;exitX=0.25;exitY=0;exitDx=0;exitDy=0;entryX=1;entryY=0.75;entryDx=0;entryDy=0;fillColor=#e1d5e7;strokeColor=#9673a6;" edge="1" parent="WIyWlLk6GJQsqaUBKTNV-1" source="dHU1uX5CywDw_5BKGUCP-3" target="dHU1uX5CywDw_5BKGUCP-5">
          <mxGeometry relative="1" as="geometry" />
        </mxCell>
        <mxCell id="dHU1uX5CywDw_5BKGUCP-3" value="Move" style="rounded=1;whiteSpace=wrap;html=1;fillColor=#dae8fc;strokeColor=#6c8ebf;" vertex="1" parent="WIyWlLk6GJQsqaUBKTNV-1">
          <mxGeometry x="499" y="410" width="120" height="60" as="geometry" />
        </mxCell>
        <mxCell id="dHU1uX5CywDw_5BKGUCP-11" style="edgeStyle=orthogonalEdgeStyle;rounded=0;orthogonalLoop=1;jettySize=auto;html=1;entryX=0.75;entryY=1;entryDx=0;entryDy=0;fillColor=#f5f5f5;strokeColor=#666666;" edge="1" parent="WIyWlLk6GJQsqaUBKTNV-1" source="dHU1uX5CywDw_5BKGUCP-4" target="dHU1uX5CywDw_5BKGUCP-2">
          <mxGeometry relative="1" as="geometry" />
        </mxCell>
        <mxCell id="dHU1uX5CywDw_5BKGUCP-21" style="edgeStyle=orthogonalEdgeStyle;rounded=0;orthogonalLoop=1;jettySize=auto;html=1;exitX=1;exitY=0.75;exitDx=0;exitDy=0;entryX=0.5;entryY=1;entryDx=0;entryDy=0;fillColor=#dae8fc;strokeColor=#6c8ebf;" edge="1" parent="WIyWlLk6GJQsqaUBKTNV-1" source="dHU1uX5CywDw_5BKGUCP-4" target="dHU1uX5CywDw_5BKGUCP-3">
          <mxGeometry relative="1" as="geometry" />
        </mxCell>
        <mxCell id="dHU1uX5CywDw_5BKGUCP-4" value="Slide" style="rounded=1;whiteSpace=wrap;html=1;fillColor=#f5f5f5;strokeColor=#666666;fontColor=#333333;" vertex="1" parent="WIyWlLk6GJQsqaUBKTNV-1">
          <mxGeometry x="343" y="540" width="120" height="60" as="geometry" />
        </mxCell>
        <mxCell id="dHU1uX5CywDw_5BKGUCP-14" style="edgeStyle=orthogonalEdgeStyle;rounded=0;orthogonalLoop=1;jettySize=auto;html=1;exitX=0;exitY=0.75;exitDx=0;exitDy=0;entryX=0.75;entryY=0;entryDx=0;entryDy=0;fillColor=#f5f5f5;strokeColor=#666666;" edge="1" parent="WIyWlLk6GJQsqaUBKTNV-1" source="dHU1uX5CywDw_5BKGUCP-5" target="dHU1uX5CywDw_5BKGUCP-2">
          <mxGeometry relative="1" as="geometry" />
        </mxCell>
        <mxCell id="dHU1uX5CywDw_5BKGUCP-17" style="edgeStyle=orthogonalEdgeStyle;rounded=0;orthogonalLoop=1;jettySize=auto;html=1;exitX=1;exitY=0.5;exitDx=0;exitDy=0;entryX=0.75;entryY=0;entryDx=0;entryDy=0;fillColor=#dae8fc;strokeColor=#6c8ebf;" edge="1" parent="WIyWlLk6GJQsqaUBKTNV-1" source="dHU1uX5CywDw_5BKGUCP-5" target="dHU1uX5CywDw_5BKGUCP-3">
          <mxGeometry relative="1" as="geometry" />
        </mxCell>
        <mxCell id="dHU1uX5CywDw_5BKGUCP-18" style="edgeStyle=orthogonalEdgeStyle;rounded=0;orthogonalLoop=1;jettySize=auto;html=1;exitX=1;exitY=0.25;exitDx=0;exitDy=0;entryX=1;entryY=0.75;entryDx=0;entryDy=0;fillColor=#f8cecc;strokeColor=#b85450;" edge="1" parent="WIyWlLk6GJQsqaUBKTNV-1" source="dHU1uX5CywDw_5BKGUCP-5" target="dHU1uX5CywDw_5BKGUCP-6">
          <mxGeometry relative="1" as="geometry">
            <Array as="points">
              <mxPoint x="629" y="295" />
              <mxPoint x="629" y="830" />
              <mxPoint x="463" y="830" />
            </Array>
          </mxGeometry>
        </mxCell>
        <mxCell id="dHU1uX5CywDw_5BKGUCP-5" value="Detach/Sprint" style="rounded=1;whiteSpace=wrap;html=1;fillColor=#e1d5e7;strokeColor=#9673a6;" vertex="1" parent="WIyWlLk6GJQsqaUBKTNV-1">
          <mxGeometry x="343" y="280" width="120" height="60" as="geometry" />
        </mxCell>
        <mxCell id="dHU1uX5CywDw_5BKGUCP-20" style="edgeStyle=orthogonalEdgeStyle;rounded=0;orthogonalLoop=1;jettySize=auto;html=1;exitX=0;exitY=0.5;exitDx=0;exitDy=0;entryX=0.25;entryY=1;entryDx=0;entryDy=0;fillColor=#f5f5f5;strokeColor=#666666;" edge="1" parent="WIyWlLk6GJQsqaUBKTNV-1" source="dHU1uX5CywDw_5BKGUCP-6" target="dHU1uX5CywDw_5BKGUCP-2">
          <mxGeometry relative="1" as="geometry" />
        </mxCell>
        <mxCell id="dHU1uX5CywDw_5BKGUCP-32" style="edgeStyle=orthogonalEdgeStyle;rounded=0;orthogonalLoop=1;jettySize=auto;html=1;exitX=0.25;exitY=0;exitDx=0;exitDy=0;entryX=0.25;entryY=1;entryDx=0;entryDy=0;fillColor=#f5f5f5;strokeColor=#666666;" edge="1" parent="WIyWlLk6GJQsqaUBKTNV-1" source="dHU1uX5CywDw_5BKGUCP-6" target="dHU1uX5CywDw_5BKGUCP-4">
          <mxGeometry relative="1" as="geometry" />
        </mxCell>
        <mxCell id="dHU1uX5CywDw_5BKGUCP-34" style="edgeStyle=orthogonalEdgeStyle;rounded=0;orthogonalLoop=1;jettySize=auto;html=1;exitX=1;exitY=0.25;exitDx=0;exitDy=0;entryX=0.5;entryY=1;entryDx=0;entryDy=0;fillColor=#dae8fc;strokeColor=#6c8ebf;" edge="1" parent="WIyWlLk6GJQsqaUBKTNV-1" source="dHU1uX5CywDw_5BKGUCP-6" target="dHU1uX5CywDw_5BKGUCP-3">
          <mxGeometry relative="1" as="geometry" />
        </mxCell>
        <mxCell id="dHU1uX5CywDw_5BKGUCP-6" value="Tripped&lt;div&gt;3 Sec Cooldown&lt;/div&gt;" style="rounded=1;whiteSpace=wrap;html=1;fillColor=#f8cecc;strokeColor=#b85450;" vertex="1" parent="WIyWlLk6GJQsqaUBKTNV-1">
          <mxGeometry x="343" y="784.5" width="120" height="60" as="geometry" />
        </mxCell>
        <mxCell id="dHU1uX5CywDw_5BKGUCP-19" style="edgeStyle=orthogonalEdgeStyle;rounded=0;orthogonalLoop=1;jettySize=auto;html=1;exitX=0;exitY=0.5;exitDx=0;exitDy=0;fillColor=#f5f5f5;strokeColor=#666666;" edge="1" parent="WIyWlLk6GJQsqaUBKTNV-1" source="dHU1uX5CywDw_5BKGUCP-7" target="dHU1uX5CywDw_5BKGUCP-2">
          <mxGeometry relative="1" as="geometry" />
        </mxCell>
        <mxCell id="dHU1uX5CywDw_5BKGUCP-31" style="edgeStyle=orthogonalEdgeStyle;rounded=0;orthogonalLoop=1;jettySize=auto;html=1;exitX=0.75;exitY=0;exitDx=0;exitDy=0;entryX=0.75;entryY=1;entryDx=0;entryDy=0;fillColor=#f5f5f5;strokeColor=#666666;" edge="1" parent="WIyWlLk6GJQsqaUBKTNV-1" source="dHU1uX5CywDw_5BKGUCP-7" target="dHU1uX5CywDw_5BKGUCP-4">
          <mxGeometry relative="1" as="geometry" />
        </mxCell>
        <mxCell id="dHU1uX5CywDw_5BKGUCP-35" style="edgeStyle=orthogonalEdgeStyle;rounded=0;orthogonalLoop=1;jettySize=auto;html=1;exitX=1;exitY=0.25;exitDx=0;exitDy=0;entryX=0.5;entryY=1;entryDx=0;entryDy=0;fillColor=#dae8fc;strokeColor=#6c8ebf;" edge="1" parent="WIyWlLk6GJQsqaUBKTNV-1" source="dHU1uX5CywDw_5BKGUCP-7" target="dHU1uX5CywDw_5BKGUCP-3">
          <mxGeometry relative="1" as="geometry" />
        </mxCell>
        <mxCell id="dHU1uX5CywDw_5BKGUCP-7" value="Stunned&lt;div&gt;2 Sec Cooldown&lt;/div&gt;" style="rounded=1;whiteSpace=wrap;html=1;fillColor=#f8cecc;strokeColor=#b85450;" vertex="1" parent="WIyWlLk6GJQsqaUBKTNV-1">
          <mxGeometry x="343" y="660" width="120" height="60" as="geometry" />
        </mxCell>
        <mxCell id="dHU1uX5CywDw_5BKGUCP-15" style="edgeStyle=orthogonalEdgeStyle;rounded=0;orthogonalLoop=1;jettySize=auto;html=1;entryX=1;entryY=0.75;entryDx=0;entryDy=0;exitX=0.75;exitY=1;exitDx=0;exitDy=0;fillColor=#f8cecc;strokeColor=#b85450;" edge="1" parent="WIyWlLk6GJQsqaUBKTNV-1" source="dHU1uX5CywDw_5BKGUCP-3" target="dHU1uX5CywDw_5BKGUCP-7">
          <mxGeometry relative="1" as="geometry" />
        </mxCell>
        <mxCell id="dHU1uX5CywDw_5BKGUCP-23" value="Line Shrinking" style="swimlane;whiteSpace=wrap;html=1;fillColor=#ffe6cc;strokeColor=#d79b00;dashed=1;dashPattern=1 1;" vertex="1" parent="WIyWlLk6GJQsqaUBKTNV-1">
          <mxGeometry x="329" y="240" width="150" height="620" as="geometry">
            <mxRectangle x="260" y="290" width="140" height="30" as="alternateBounds" />
          </mxGeometry>
        </mxCell>
        <mxCell id="dHU1uX5CywDw_5BKGUCP-26" value="Hit - Dizzy - Temp. Invulnerable" style="swimlane;horizontal=0;whiteSpace=wrap;html=1;fillColor=#f8cecc;strokeColor=#b85450;dashed=1;dashPattern=1 1;" vertex="1" parent="WIyWlLk6GJQsqaUBKTNV-1">
          <mxGeometry x="288" y="644.5" width="211" height="225.5" as="geometry" />
        </mxCell>
        <mxCell id="dHU1uX5CywDw_5BKGUCP-30" value="Player Moving" style="swimlane;whiteSpace=wrap;html=1;fillColor=#dae8fc;strokeColor=#6c8ebf;dashed=1;dashPattern=1 1;" vertex="1" parent="WIyWlLk6GJQsqaUBKTNV-1">
          <mxGeometry x="319" y="210" width="320" height="280" as="geometry" />
        </mxCell>
      </root>
    </mxGraphModel>
  </diagram>
</mxfile>
